<svg xmlns="http://www.w3.org/2000/svg" viewBox="0 0 266.24 83.61"><defs><style>.cls-1{fill:#256c9c;}.cls-2{fill:#acdee9;}</style></defs><g id="Layer_2" data-name="Layer 2"><g id="Layer_1-2" data-name="Layer 1"><path class="cls-1" d="M54.2.21c15.49,0,31,.12,46.48,0,8.83-.1,15.9,2.92,21,10.26.1.14.21.27.31.4,7.4,9.71,14,12.62,24.3-1.7,4.68-6.5,11.61-8.73,19.12-9,10-.31,20-.08,30,0C217.2.16,239,.42,260.85.17,266,.11,266.67,2,266,6.31c-.81,5.45-2.57,9.84-8.31,11.9-4,1.44-4.9,5.05-5,9-.08,6.32.19,12.65-1,18.93a36.76,36.76,0,0,1-12.93,22.25c-20.89,17.27-44,18.93-68.6,9.76-9.21-3.43-16.17-9.89-21.6-17.88-4.59-6.77-10.26-10.3-18.72-9-3.6.56-5.83,2.84-8.26,4.91A26.74,26.74,0,0,0,116.27,62c-16,25.45-65.41,29.55-90.12,5.49C17.68,59.24,14,49.05,13.78,37.4c0-3,.19-6,.12-9-.13-5.13-1.41-9.31-7.23-11.1C2.29,16-1.26,6.08.43,1.75,1.31-.5,3.24.35,4.72.34,21.21.27,37.7.3,54.2.3ZM201.35,8.3V8c-4,0-8,.1-12,0-8.41-.27-16.62.54-24.47,3.8-19.28,8-24.45,31.33-10.12,46.5C169.63,74.06,188,79,209,74.81c15.62-3.12,27.56-11.34,34.43-26.05,7.25-15.54,1.54-41.28-25.06-40.49C212.67,8.44,207,8.3,201.35,8.3Zm-136.18,0c-6.66,0-13.33-.18-20,.05A25.53,25.53,0,0,0,26.23,17c-7.06,7.84-7.35,27.19.08,37.89,19.86,28.6,69,28.44,88.55-.43,2.74-4,4.74-8.61,4.88-13.35.47-16.18-7.27-26.17-22.81-30.9C86.46,7,75.78,8.35,65.17,8.34Z"/><path class="cls-2" d="M201.35,8.3c5.66,0,11.32.14,17,0,26.6-.79,32.31,25,25.06,40.49C236.52,63.47,224.58,71.69,209,74.81c-21,4.19-39.33-.75-54.19-16.5-14.33-15.17-9.16-38.49,10.12-46.5C172.74,8.55,181,7.74,189.36,8c4,.12,8,0,12,0Z"/><path class="cls-2" d="M65.17,8.34C75.78,8.35,86.46,7,96.93,10.2c15.54,4.73,23.28,14.72,22.81,30.9-.14,4.74-2.14,9.31-4.88,13.35-19.56,28.87-68.69,29-88.55.43-7.43-10.7-7.14-30.05-.08-37.89a25.53,25.53,0,0,1,19-8.6C51.84,8.16,58.51,8.34,65.17,8.34Z"/></g></g></svg>