<svg xmlns="http://www.w3.org/2000/svg" viewBox="0 0 323.93 348.22"><defs><style>.cls-1{fill:#29b1e5;}.cls-2{fill:#fff;}.cls-3{fill:#454445;}</style></defs><g id="Layer_2" data-name="Layer 2"><g id="Layer_1-2" data-name="Layer 1"><path class="cls-1" d="M0,168.93c-.26-30.55,6.41-56.55,19.27-81C35,58.13,58.07,35.39,87.47,19.49,114,5.14,142.65-1.13,173,.17,205.3,1.55,234.7,11.52,260.43,31a159.52,159.52,0,0,1,43.73,50.42c14.33,26,21.24,54.06,19.51,83.79-2.22,38.22-16.22,71.58-42.46,99.77-23.22,24.95-51.56,40.53-84.8,47.32a122.78,122.78,0,0,1-23.75,2.8c-6.41,0-6.41.15-6.43,6.8,0,7.5-.11,15,0,22.49.05,3-.89,3.89-4,3.82-28.3-.57-53.76-9.75-77.41-24.81a171.76,171.76,0,0,1-44.35-41.17C15.14,249-.57,207.73,0,168.93Zm165.8,101.36c62,.16,112.85-50,113.22-111.36.38-62.22-48.2-115-113.42-114.77-63.41.23-111.74,48.1-112.77,112.28C51.86,219,104.41,271.19,165.82,270.29Z"/><path class="cls-2" d="M165.82,270.29c-61.41.9-114-51.27-113-113.85,1-64.18,49.36-112,112.77-112.28,65.22-.24,113.8,52.55,113.42,114.77C278.67,220.25,227.84,270.45,165.82,270.29ZM100.58,139c-9.36,27,3.58,60.45,29.41,76.28,27.41,16.8,63.31,12.43,85.15-10.38a68.16,68.16,0,0,0,7.38-85C204.16,92.38,171,84.45,147.28,92.41c7.05,14.69,6.12,28.71-5.43,40.53C130,145.09,115.65,146,100.58,139Z"/><path class="cls-3" d="M100.58,139c15.07,7,29.39,6.08,41.27-6.07,11.55-11.82,12.48-25.84,5.43-40.53,23.75-8,56.88,0,75.24,27.52a68.16,68.16,0,0,1-7.38,85C193.3,227.72,157.4,232.09,130,215.29,104.16,199.46,91.22,166,100.58,139Z"/></g></g></svg>