<svg xmlns="http://www.w3.org/2000/svg" viewBox="0 0 330.26 463.07"><defs><style>.cls-1{fill:#29b1e5;}.cls-2{fill:#fff;}.cls-3,.cls-4{fill:#454445;}.cls-4{stroke:#454445;stroke-miterlimit:10;stroke-width:4px;}</style></defs><g id="Layer_2" data-name="Layer 2"><g id="Layer_1-2" data-name="Layer 1"><path class="cls-1" d="M0,168.93c-.26-30.55,6.41-56.55,19.27-81C35,58.13,58.07,35.39,87.47,19.49,114,5.14,142.65-1.13,173,.17,205.3,1.55,234.7,11.52,260.43,31a159.52,159.52,0,0,1,43.73,50.42c14.33,26,21.24,54.06,19.51,83.79-2.22,38.22-16.22,71.58-42.46,99.77-23.22,24.95-51.56,40.53-84.8,47.32a122.78,122.78,0,0,1-23.75,2.8c-6.41,0-6.41.15-6.43,6.8,0,7.5-.11,15,0,22.49.05,3-.89,3.89-4,3.82-28.3-.57-53.76-9.75-77.41-24.81a171.76,171.76,0,0,1-44.35-41.17C15.14,249-.57,207.73,0,168.93Zm165.8,101.36c62,.16,112.85-50,113.22-111.36.38-62.22-48.2-115-113.42-114.77-63.41.23-111.74,48.1-112.77,112.28C51.86,219,104.41,271.19,165.82,270.29Z"/><path class="cls-2" d="M165.82,270.29c-61.41.9-114-51.27-113-113.85,1-64.18,49.36-112,112.77-112.28,65.22-.24,113.8,52.55,113.42,114.77C278.67,220.25,227.84,270.45,165.82,270.29ZM100.58,139c-9.36,27,3.58,60.45,29.41,76.28,27.41,16.8,63.31,12.43,85.15-10.38a68.16,68.16,0,0,0,7.38-85C204.16,92.38,171,84.45,147.28,92.41c7.05,14.69,6.12,28.71-5.43,40.53C130,145.09,115.65,146,100.58,139Z"/><path class="cls-3" d="M100.58,139c15.07,7,29.39,6.08,41.27-6.07,11.55-11.82,12.48-25.84,5.43-40.53,23.75-8,56.88,0,75.24,27.52a68.16,68.16,0,0,1-7.38,85C193.3,227.72,157.4,232.09,130,215.29,104.16,199.46,91.22,166,100.58,139Z"/><path class="cls-4" d="M21.56,456.75a30.18,30.18,0,0,1-11.9-12.07,38.46,38.46,0,0,1,0-35.11,30.27,30.27,0,0,1,11.9-12,35,35,0,0,1,17.49-4.32,34.83,34.83,0,0,1,17.41,4.32,30.65,30.65,0,0,1,11.95,12,38.22,38.22,0,0,1,0,35.11A30.59,30.59,0,0,1,56.5,456.75a34.77,34.77,0,0,1-17.45,4.32A35,35,0,0,1,21.56,456.75ZM52,449.68a24.05,24.05,0,0,0,9-9.36,28.73,28.73,0,0,0,0-26.43,23.83,23.83,0,0,0-8.93-9.32,25,25,0,0,0-13-3.39,25,25,0,0,0-13,3.39,23.92,23.92,0,0,0-8.94,9.32,28.73,28.73,0,0,0,0,26.43,24.12,24.12,0,0,0,9,9.36,24.81,24.81,0,0,0,13,3.43A24.81,24.81,0,0,0,52,449.68Z"/><path class="cls-4" d="M87.76,459a4.27,4.27,0,0,1-1.27-3.14V398.47a4.22,4.22,0,0,1,1.27-3.18,4.37,4.37,0,0,1,3.14-1.22h16.94a22.45,22.45,0,0,1,11.22,2.79,19.55,19.55,0,0,1,7.71,7.8A23.06,23.06,0,0,1,129.53,416a21.79,21.79,0,0,1-2.76,11,19.36,19.36,0,0,1-7.71,7.54,22.94,22.94,0,0,1-11.22,2.71H95.3v18.55A4.35,4.35,0,0,1,94.07,459a4.25,4.25,0,0,1-3.17,1.27A4.29,4.29,0,0,1,87.76,459Zm20.08-29.82a12.94,12.94,0,0,0,9.49-3.69,12.7,12.7,0,0,0,3.72-9.44,13.76,13.76,0,0,0-3.72-9.91,12.57,12.57,0,0,0-9.49-3.9H95.3v26.94Z"/><path class="cls-4" d="M185.22,395.21a4.07,4.07,0,0,1-2.92,7H164.09v53.62a4.41,4.41,0,1,1-8.81,0V402.2H137a4.07,4.07,0,1,1,0-8.13H182.3A4,4,0,0,1,185.22,395.21Z"/><path class="cls-4" d="M197.38,459a4.27,4.27,0,0,1-1.27-3.14V398.47a4.22,4.22,0,0,1,1.27-3.18,4.69,4.69,0,0,1,6.31,0,4.3,4.3,0,0,1,1.23,3.18v57.35a4.35,4.35,0,0,1-1.23,3.14,4.55,4.55,0,0,1-6.31,0Z"/><path class="cls-4" d="M223.17,459a4.23,4.23,0,0,1-1.31-3.14V398.47a4.19,4.19,0,0,1,1.31-3.13,4.3,4.3,0,0,1,3.09-1.27,4.34,4.34,0,0,1,4.41,4.4v25.42l28-28a6.83,6.83,0,0,1,1.82-1.4,4.12,4.12,0,0,1,1.82-.38,3.51,3.51,0,0,1,2.75,1.06,3.65,3.65,0,0,1,1,2.58,5.21,5.21,0,0,1-1.61,3.81l-21.6,21.69,22,30a4.69,4.69,0,0,1-.25,5.71,3.5,3.5,0,0,1-2.8,1.32,4.13,4.13,0,0,1-3.64-1.87l-21.43-29.05-6.1,6.1v20.41a4.34,4.34,0,0,1-4.41,4.41A4.34,4.34,0,0,1,223.17,459Z"/><path class="cls-4" d="M328.26,455.91a4.2,4.2,0,0,1-1.27,3,4.31,4.31,0,0,1-3.14,1.27,4.46,4.46,0,0,1-2.41-.72,4.13,4.13,0,0,1-1.65-2L315,445.66H284.63l-4.83,11.86a4.71,4.71,0,0,1-1.69,2,4.28,4.28,0,0,1-2.37.72,4.05,4.05,0,0,1-3.1-1.32,4.34,4.34,0,0,1-1.22-3.09,5.63,5.63,0,0,1,.42-1.95L295.64,397a4.3,4.3,0,0,1,4.15-3,4.13,4.13,0,0,1,4.16,3l23.88,57A5.29,5.29,0,0,1,328.26,455.91ZM287.6,438.37h24.48L300,408.21Z"/></g></g></svg>