<svg xmlns="http://www.w3.org/2000/svg" viewBox="0 0 211.56 108.09"><defs><style>.cls-1{fill:#acdee9;}.cls-2{fill:#256c9c;}.cls-3{fill:#f4f8fa;}</style></defs><g id="Layer_2" data-name="Layer 2"><g id="Layer_1-2" data-name="Layer 1"><path class="cls-1" d="M96.63,10.57C120.79,8.51,145,32.64,144.44,59.22c-.57,26.22-21.53,48.44-48.78,48.06-28-.39-48.3-21.84-48.27-49.9C47.42,32.48,69.72,8.71,96.63,10.57ZM72.14,39.62c-.36-.35-.55-1.3-1.27-.36l1.3.32a3.68,3.68,0,0,0,2,3.26c2,1.2,2.25,2.53,1.12,4.54s-2.47,2.62-4.51,2c-1.52-.47-3-1.17-4.84-.23,1.12.45,2,.86,2.93,1.17,1.67.58,4.14-.16,3.62,3.32-.41,2.74-1.23,3.72-4.08,4.35-3.35.73-6.77.25-10,1.27,3.49.29,7,.31,10.44.29,1.8,0,3.35.18,3.42,2.54.05,1.95,1.73,4.27-1.5,5.37A3.44,3.44,0,0,0,67.92,70c5.26-3.1,7.39-.46,9.59,3.69,1.36,2.58,5,3.65,6,7,.25.86,1,.11,1.61-.07,3.43-1,4.94.9,5.48,4.94.83-3.34,2.35-4.18,4.69-3.92,4.77.52,1.73,5.3,3.86,7.61,2-2.43-.49-5.69,2.16-7.52s5-.64,7.4,1.36c-1.63-3.86.53-5.88,3.09-7.19,3-1.55,3.87,3.57,7.15,3.06-.35-.77-.44-1.33-.77-1.62-3.42-3.11-4.8-5.83,1.15-7.53,1-.29,1.88-1.08,1-2.23-2.39-3.19-.83-6.78-1.1-10.17-.18-2.28,1.36-5.47.3-6.74-2.2-2.65-3.79-5.73-5.87-8.43-2.84-3.69-10.89-5.5-5.39-13.21-2.1.74-2.27,2.05-2.81,3-1,1.87-1.49,3.7-4.7,2.86S98.12,32,98.14,30c0-2.57.28-5.13.43-7.7-1.83,3.12-1,6.5-2.2,9.63-.59,1.57-1,2.68-2.87,2.72s-3.15-.31-3.72-2.38c-.67-2.43-1.67-4.76-2.53-7.14a14.26,14.26,0,0,0,.1,5.38c1,5.47-.13,6.65-6.22,6.12a5.22,5.22,0,0,0-.33-1.44c-.52-1-.71-2.35-2.2-2.34-.33,0-.94.55-.93.83,0,1.32,1.09,2,2.07,2.56a4.69,4.69,0,0,0,1.43.35c-.83,5.49-1,5.54-6.16,3.39A11.17,11.17,0,0,0,72.14,39.62ZM110.41,22.4C109,24.08,108,25.12,108.67,27,110.33,25.88,110.14,24.45,110.41,22.4Z"/><path class="cls-2" d="M3,36.44A132.06,132.06,0,0,1,67.62,2.71C96.89-3.45,125,1.13,151.69,14c15,7.2,29.26,15.81,42,26.63,5.29,4.48,10.47,9.11,15.64,13.73,2.27,2,3,4,1.15,7.2-7,12.22-17.46,20.81-28.91,28.36-11.76,7.75-24.62,13.14-38,17.3a13,13,0,0,1-6.7,0,3.42,3.42,0,0,0-.06.71c0,.08.26.17.26.16,1.21-1.78,3.16-2.12,5-2.82,23.88-9,45.53-21.15,61.18-42.16,2.47-3.31,2.07-4.93-.92-7.56-21.85-19.24-45.67-35.24-73.75-43.78C84.06-1.78,43.81,8.14,6.87,34.94c-1.07.78-2.17,1.53-3.25,2.29A2.68,2.68,0,0,0,3,36.44Z"/><path class="cls-2" d="M3.62,37.23.24,39.54,0,39.23l3-2.79A2.68,2.68,0,0,1,3.62,37.23Z"/><path class="cls-3" d="M81.13,36.62c6.09.53,7.26-.65,6.22-6.12a14.26,14.26,0,0,1-.1-5.38c.86,2.38,1.86,4.71,2.53,7.14.57,2.07,1.86,2.42,3.72,2.38s2.28-1.15,2.87-2.72c1.17-3.13.37-6.51,2.2-9.63-.15,2.57-.41,5.13-.43,7.7,0,2-.62,4,2.64,4.91s3.67-1,4.7-2.86c.54-1,.71-2.28,2.81-3-5.5,7.71,2.55,9.52,5.39,13.21,2.08,2.7,3.67,5.78,5.87,8.43,1.06,1.27-.48,4.46-.3,6.74.27,3.39-1.29,7,1.1,10.17.86,1.15,0,1.94-1,2.23-6,1.7-4.57,4.42-1.15,7.53.33.29.42.85.77,1.62-3.28.51-4.12-4.61-7.15-3.06-2.56,1.31-4.72,3.33-3.09,7.19-2.39-2-4.66-3.24-7.4-1.36s-.15,5.09-2.16,7.52c-2.13-2.31.91-7.09-3.86-7.61-2.34-.26-3.86.58-4.69,3.92-.54-4-2-6-5.48-4.94-.6.18-1.36.93-1.61.07-1-3.35-4.64-4.42-6-7-2.2-4.15-4.33-6.79-9.59-3.69a3.44,3.44,0,0,1,2.79-2.55c3.23-1.1,1.55-3.42,1.5-5.37-.07-2.36-1.62-2.56-3.42-2.54-3.48,0-7,0-10.44-.29,3.27-1,6.69-.54,10-1.27,2.85-.63,3.67-1.61,4.08-4.35.52-3.48-2-2.74-3.62-3.32-.92-.31-1.81-.72-2.93-1.17,1.86-.94,3.32-.24,4.84.23,2,.64,3.43-.07,4.51-2s.87-3.34-1.12-4.54a3.68,3.68,0,0,1-2-3.26l0,0A11.17,11.17,0,0,1,75,40c5.19,2.15,5.33,2.1,6.16-3.39Zm30.92,7.88C102,33,84.11,34.79,77.08,47.82c-1,1.94-1.5,3.16.81,4.9C82,55.84,82,60.21,77.64,62.93c-2.51,1.57-2.06,2.7-1.09,4.64,3.67,7.27,9.59,11.4,17.63,12.05,8.27.67,14.85-2.67,19.65-9.45,1.5-2.13,2.37-3.42-1.39-4.78s-7.09-4.31-7.54-9A10.56,10.56,0,0,1,110,45.85C110.71,45.42,111.36,45,112.05,44.5Z"/><path class="cls-3" d="M81.17,36.58a4.69,4.69,0,0,1-1.43-.35c-1-.6-2-1.24-2.07-2.56,0-.28.6-.83.93-.83,1.49,0,1.68,1.37,2.2,2.34a5.22,5.22,0,0,1,.33,1.44Z"/><path class="cls-3" d="M110.41,22.4c-.27,2.05-.08,3.48-1.74,4.62C108,25.12,109,24.08,110.41,22.4Z"/><path class="cls-3" d="M72.17,39.58l-1.3-.32c.72-.94.91,0,1.27.36Z"/><path class="cls-2" d="M112.05,44.5c-.69.46-1.34.92-2,1.35a10.56,10.56,0,0,0-5.13,10.57c.45,4.66,3.83,7.62,7.54,9s2.89,2.65,1.39,4.78C109,77,102.45,80.29,94.18,79.62c-8-.65-14-4.78-17.63-12.05-1-1.94-1.42-3.07,1.09-4.64,4.33-2.72,4.4-7.09.25-10.21-2.31-1.74-1.86-3-.81-4.9C84.11,34.79,102,33,112.05,44.5Z"/><circle class="cls-3" cx="117.81" cy="55.77" r="13.32"/></g></g></svg>