<svg xmlns="http://www.w3.org/2000/svg" viewBox="0 0 928.44 771.24"><defs><style>.cls-1{fill:#256c9c;}.cls-2{fill:#f4e3ef;}.cls-3{fill:#dfdddc;}.cls-4{fill:#c8c6c6;}.cls-5{fill:#acdee9;}</style></defs><g id="Layer_2" data-name="Layer 2"><g id="Layer_1-2" data-name="Layer 1"><path class="cls-1" d="M625.23,34.32c1.75.29,3.21-.46,4.73-1.17,47-22,95.6-26.35,145.62-12.54,37.88,10.45,70.17,30.33,96.92,59.15,29.93,32.26,47.87,70.33,53.92,113.79,5.51,39.6-.3,77.79-16.8,114.26a208.05,208.05,0,0,1-55.08,73,33.45,33.45,0,0,0-2.68,2.89,77.85,77.85,0,0,0-19,14.19c-3,.1-5.15,2.13-7.55,3.54a205.66,205.66,0,0,1-85.92,28c-39.64,3.77-77.5-3.21-113.06-21.21-48-24.29-82.18-61.5-101.43-111.71-21.21-55.35-18.85-110.21,6.14-164,1.7-3.65-.14-4.66-2.28-6.16-38.51-26.95-91.34-26.92-129.71,0-2.57,1.8-3.41,3.21-1.7,6.33,4.85,8.91,8.2,18.51,11.09,28.18,8.61,28.87,11.33,58.25,7.21,88.22A208.87,208.87,0,0,1,295.08,411.54a207.71,207.71,0,0,1-190.56-9.15c-1.4-.82-2.76-2.11-4.43-.49.12-3.42-2.81-4.31-5-5.42-4.94-2.54-8.27-7.6-14-8.79-3.46-4.52-8.27-7.57-12.4-11.36C31.4,342.1,8.62,300,2.05,249.89c-8.47-64.57,9.3-121.69,53.43-169.52C101.26,30.74,158.92,9.14,226.14,13.55c25.57,1.67,49.94,8.78,73.05,20,2.05,1,4,2.47,6.5,1.75,5.29,5.8,12,9.27,19.24,12,1.94,2.8,4.86,4.47,7.52,6.41a202.62,202.62,0,0,1,50.19,52.79c2.33,3.54,3.77,3.64,7.06,1.42,22.66-15.29,47.89-22.64,75.09-22.51a131.36,131.36,0,0,1,74.82,23.4c2.56,1.75,3.45,1.46,5.15-1.13a217.9,217.9,0,0,1,33.33-39.49c8.5-8,18.36-14.19,27-21.94,2.72.22,4.72-1.51,6.58-2.92C616,40,621.7,38.8,625.23,34.32Zm226,321.31c16.46-16.74,30-35.48,39.6-57,14.89-33.5,19.94-68.44,14.49-104.68A188,188,0,0,0,696.39,35.2c-15.49,1.91-30.65,5.33-45,11.84-8.24,1.5-15.18,5.84-22.17,10.09-22.13,11.3-40.49,27.27-56,46.48Q536.89,148.85,532.09,207a187.76,187.76,0,0,0,78.53,167.77c30.3,21.54,64.12,33,101.19,34.82a182.31,182.31,0,0,0,79.76-14.33c14.85-6.21,29.27-13.45,41.34-24.5C840.3,367.24,845.4,361,851.24,355.63Zm-769.41,3.9c4.83,6.58,11.66,10.74,18.32,15.1,1.27,1,2.46,2.16,3.82,3.05a193.29,193.29,0,0,0,53.08,24.6q56.56,16.14,112.23-2.83a184.74,184.74,0,0,0,88.2-63.19c22.17-28.69,34.87-61.17,38.35-97.26,3.13-32.44-2.17-63.53-15.23-93.31a183.53,183.53,0,0,0-51.07-67.88c-8.87-7.42-17.8-15-28.95-19.08C294.67,52.61,287.1,49.9,279,48.21c-.72-1.61-2.39-1.56-3.71-2.07A187.09,187.09,0,0,0,117.61,57.43,188.08,188.08,0,0,0,21,214.08C19.5,254.16,29.86,291,51.7,324.59,60.14,337.54,69.78,349.62,81.83,359.53Z"/><path class="cls-1" d="M191.51,656.05Q180.28,643.66,169,631.28c-26.51-33.13-48.08-69.13-63.07-108.93a376,376,0,0,1-22.07-89.94c-1.71-14.87-3.15-29.73-2.8-44.72,5.75,1.19,9.08,6.25,14,8.79,2.18,1.11,5.11,2,5,5.42.33,2.8.81,5.6,1,8.42a332.42,332.42,0,0,0,10.52,66.61c16,61.34,45.65,115.29,89.59,161.1,61.7,64.31,137.1,101.35,225.5,111.76a351.63,351.63,0,0,0,84.1-.63A362.78,362.78,0,0,0,599.48,727Q698,688.31,761.07,603.34c45.21-61,68.47-129.78,71.79-205.46a77.85,77.85,0,0,1,19-14.19,375.59,375.59,0,0,1-21.33,129,379.87,379.87,0,0,1-59.4,109.11c-.81,1-1.47,2.19-2.2,3.29q-10.38,12-20.74,24l-24.31,23.84a20.08,20.08,0,0,0-2.48,1.64,377.82,377.82,0,0,1-56,41.26c-56.52,34.37-118,52.13-183.83,55.15a373.93,373.93,0,0,1-61.2-2.58,390.6,390.6,0,0,1-91.5-22.47c-20.22-7.59-39.46-17.25-58.22-27.79-9.79-5.5-18.88-12.26-28.08-18.75-8.1-5.73-15.9-11.88-23.84-17.85-1.79-1.67-3.47-3.48-5.38-5C205.52,670.25,198.64,663,191.51,656.05Z"/><path class="cls-1" d="M625.23,34.32c-3.53,4.48-9.24,5.7-13.57,9-1.86,1.41-3.86,3.14-6.58,2.92-5.86-2.21-11.67-4.56-17.58-6.6a360.94,360.94,0,0,0-117.87-20.3c-10.14,0-20.25.13-30.39.9a394.37,394.37,0,0,0-47.71,6.62c-22.87,4.59-44.92,11.93-66.6,20.43-7.2-2.75-13.95-6.22-19.24-12,29.19-13.84,59.83-23.11,91.52-29A375.84,375.84,0,0,1,482.56.37C532.25,2.53,579.94,13.48,625.23,34.32Z"/><path class="cls-2" d="M832.86,397.88c-3.32,75.68-26.58,144.51-71.79,205.46q-63,84.87-161.59,123.62a362.78,362.78,0,0,1-88.73,22.2,351.63,351.63,0,0,1-84.1.63c-88.4-10.41-163.8-47.45-225.5-111.76-43.94-45.81-73.55-99.76-89.59-161.1A332.42,332.42,0,0,1,101,410.32c-.14-2.82-.62-5.62-1-8.42,1.67-1.62,3-.33,4.43.49a207.71,207.71,0,0,0,190.56,9.15A208.87,208.87,0,0,0,415.65,249.08c4.12-30,1.4-59.35-7.21-88.22-2.89-9.67-6.24-19.27-11.09-28.18-1.71-3.12-.87-4.53,1.7-6.33,38.37-26.89,91.2-26.92,129.71,0,2.14,1.5,4,2.51,2.28,6.16-25,53.75-27.35,108.61-6.14,164,19.25,50.21,53.47,87.42,101.43,111.71,35.56,18,73.42,25,113.06,21.21a205.66,205.66,0,0,0,85.92-28C827.71,400,829.84,398,832.86,397.88Zm-454.3,98.67c-15.94-9.83-28.81-23.3-42.25-36.12,9.87,17,21.6,32.44,36.21,45.55,3.08,3.74,6.94,6.63,10.7,9.62,32.09,25.55,68.31,35.58,108.94,28.82A112.36,112.36,0,0,0,531,530.52c10.45-6.12,20.22-13,28.37-22,15-14.51,26.45-31.67,36.69-49.71-15,14.11-28.41,29.88-45.41,41.75-3.49,1.86-6.95,3.79-10.48,5.58-22.61,11.43-47.13,13.29-71.82,14A193.4,193.4,0,0,1,440,518.49a162.17,162.17,0,0,1-34.64-8.38C396,506.82,387.47,501.16,378.56,496.55Z"/><path class="cls-2" d="M324.93,47.3c21.68-8.5,43.73-15.84,66.6-20.43a394.37,394.37,0,0,1,47.71-6.62c10.14-.77,20.25-.92,30.39-.9A360.94,360.94,0,0,1,587.5,39.65c5.91,2,11.72,4.39,17.58,6.6-8.63,7.75-18.49,14-27,21.94a217.9,217.9,0,0,0-33.33,39.49c-1.7,2.59-2.59,2.88-5.15,1.13a131.36,131.36,0,0,0-74.82-23.4c-27.2-.13-52.43,7.22-75.09,22.51-3.29,2.22-4.73,2.12-7.06-1.42a202.62,202.62,0,0,0-50.19-52.79C329.79,51.77,326.87,50.1,324.93,47.3Z"/><path class="cls-3" d="M832.91,370.71c-12.07,11.05-26.49,18.29-41.34,24.5a182.31,182.31,0,0,1-79.76,14.33c-37.07-1.77-70.89-13.28-101.19-34.82A187.76,187.76,0,0,1,532.09,207q4.81-58.06,41.22-103.34c15.46-19.21,33.82-35.18,56-46.48A367.17,367.17,0,0,1,805.59,246C822.2,285.91,830.65,327.64,832.91,370.71ZM551,226.22c-.6,6.77,1.21,18.33,3.62,29.59a167.55,167.55,0,0,0,45.11,83.77,170.19,170.19,0,0,0,32.31,25.47c26.85,16.51,56.32,23.91,87.46,24.33a153.43,153.43,0,0,0,27.1-2.41c29.86-5,56.09-17.63,79.73-36.14,1.6-1.25,2.8-2.69,2.47-5.07-2.36-17.21-5-34.39-9.47-51.2-8.22-30.77-19.7-60.24-35.45-88a355.21,355.21,0,0,0-46.44-64.46,369.23,369.23,0,0,0-39.89-38.19,405.55,405.55,0,0,0-45.14-31.73C649,70.07,646,70,642.27,72,620,84.1,600.89,99.68,585.49,120.05,562.79,150.1,551.72,183.84,551,226.22Z"/><path class="cls-3" d="M300.58,58.73c11.15,4.07,20.08,11.66,28.95,19.08a183.53,183.53,0,0,1,51.07,67.88C393.66,175.47,399,206.56,395.83,239c-3.48,36.09-16.18,68.57-38.35,97.26a184.74,184.74,0,0,1-88.2,63.19q-55.59,19-112.23,2.83A193.29,193.29,0,0,1,104,377.68c-1.36-.89-2.55-2-3.82-3.05.32-4.3.78-8.6.92-12.91,1.08-31.08,7.27-61.23,17-90.63,22.77-68.64,62.52-125.6,118.57-171.26C256.44,83.73,278,70.46,300.58,58.73Zm-90.07,330c17.67.71,36.26-2.78,54.4-9.19,40.78-14.41,71.37-41,92-78.69,16.85-30.78,22.79-64.06,18.78-99.06a163.52,163.52,0,0,0-15.82-54.1c-14.66-29.75-36.6-52.87-64.67-70.52C287,72,280,69.64,272.31,77.24a19.54,19.54,0,0,1-3.37,2.11,369.88,369.88,0,0,0-77.81,67.71A366.17,366.17,0,0,0,144,215.85a360.25,360.25,0,0,0-28.41,71.64c-4.79,16.9-7.66,34.19-10.73,51.47-1.69,9.52-.07,16.39,9.18,20.49.87.39,1.47,1.36,2.31,1.88C144.6,379.11,175.09,389.47,210.51,388.72Z"/><path class="cls-4" d="M81.83,359.53c-12-9.91-21.69-22-30.13-34.94C29.86,291,19.5,254.16,21,214.08A188.08,188.08,0,0,1,117.61,57.43,187.09,187.09,0,0,1,275.32,46.14c1.32.51,3,.46,3.71,2.07q-10,6.2-20,12.39c-.66.4-1.19.36-1.6-.32-1.3-.25-2.63-.4-3.9-.75a162.38,162.38,0,0,0-75.68-3C132.9,65.44,96.9,88.87,70.71,126.65a163.76,163.76,0,0,0-27,67.27,166.75,166.75,0,0,0,.75,60.19A163.23,163.23,0,0,0,78,326c1.77,2.19,2.63,6.16,6.82,5.71C83.36,340.93,82.4,350.21,81.83,359.53Z"/><path class="cls-3" d="M651.43,47c14.31-6.51,29.47-9.93,45-11.84A188.12,188.12,0,0,1,905.33,194c5.45,36.24.4,71.18-14.49,104.68-9.57,21.52-23.14,40.26-39.6,57q-1.66-14.43-3.35-28.86c2,0,3-1.29,3.92-2.68,3.28-4.78,6.8-9.36,9.87-14.31,20.83-33.54,28.51-70.06,24.06-109A161.13,161.13,0,0,0,863,135a173.25,173.25,0,0,0-39.42-44.95,168.56,168.56,0,0,0-41-24.14A151.86,151.86,0,0,0,734,54.31c-12.81-.9-25.78-1.21-38.56.91-7.25,1.2-14.75,1.6-21.43,5.23Z"/><path class="cls-1" d="M651.43,47,674,60.45a9.85,9.85,0,0,0,1.09,1A386.46,386.46,0,0,1,839.93,289.93c3.12,12.16,5.33,24.55,8,36.84q1.68,14.43,3.35,28.86c-5.84,5.35-10.94,11.61-18.33,15.08-2.26-43.07-10.71-84.8-27.32-124.71A367.17,367.17,0,0,0,629.26,57.13C636.25,52.88,643.19,48.54,651.43,47Z"/><path class="cls-1" d="M81.83,359.53c.57-9.32,1.53-18.6,3-27.83a372.41,372.41,0,0,1,21.65-83.93Q151.36,132.54,254.28,63.84c1.36-.91,2.8-1.76,3.14-3.56.41.68.94.72,1.6.32q10-6.21,20-12.39c8.07,1.69,15.64,4.4,21.55,10.52-22.57,11.73-44.14,25-63.91,41.1-56,45.66-95.8,102.62-118.57,171.26-9.76,29.4-15.95,59.55-17,90.63-.14,4.31-.6,8.61-.92,12.91C93.49,370.27,86.66,366.11,81.83,359.53Z"/><path class="cls-1" d="M559.38,508.51c-8.15,9-17.92,15.89-28.37,22a112.36,112.36,0,0,1-38.85,13.9c-40.63,6.76-76.85-3.27-108.94-28.82-3.76-3-7.62-5.88-10.7-9.62,1.54-3.44,6.15-4.93,6-9.43,8.91,4.61,17.45,10.27,26.83,13.56A162.17,162.17,0,0,0,440,518.49a193.4,193.4,0,0,0,28.33,1.67c24.69-.74,49.21-2.6,71.82-14,3.53-1.79,7-3.72,10.48-5.58C554.61,502.06,555.05,507.41,559.38,508.51Z"/><path class="cls-1" d="M559.38,508.51c-4.33-1.1-4.77-6.45-8.72-8,17-11.87,30.39-27.64,45.41-41.75C585.83,476.84,574.41,494,559.38,508.51Z"/><path class="cls-1" d="M378.56,496.55c.11,4.5-4.5,6-6,9.43-14.61-13.11-26.34-28.52-36.21-45.55C349.75,473.25,362.62,486.72,378.56,496.55Z"/><path class="cls-5" d="M551,226.22c.69-42.38,11.76-76.12,34.46-106.17C600.89,99.68,620,84.1,642.27,72c3.69-2,6.7-1.89,10.17.22a405.55,405.55,0,0,1,45.14,31.73,369.23,369.23,0,0,1,39.89,38.19,355.21,355.21,0,0,1,46.44,64.46c15.75,27.76,27.23,57.23,35.45,88,4.49,16.81,7.11,34,9.47,51.2.33,2.38-.87,3.82-2.47,5.07-23.64,18.51-49.87,31.11-79.73,36.14a153.43,153.43,0,0,1-27.1,2.41c-31.14-.42-60.61-7.82-87.46-24.33a170.19,170.19,0,0,1-32.31-25.47,167.55,167.55,0,0,1-45.11-83.77C552.24,244.55,550.43,233,551,226.22Zm99.37,53.42c-9.81.11-19.6.31-29.27,2.18-5.84,1.12-11.78,2.11-16.85,5.49-3.81,2.54-3.74,5.12,0,7.69a26.24,26.24,0,0,0,9.13,3.74c22.46,5.16,45,5,67.7,1.48a44.71,44.71,0,0,0,15.08-4.7c4.84-2.7,4.83-6-.05-8.75a35.37,35.37,0,0,0-7.34-2.93C676.28,280.16,663.35,279.72,650.4,279.64Z"/><path class="cls-5" d="M210.51,388.72c-35.42.75-65.91-9.61-94.2-27.39-.84-.52-1.44-1.49-2.31-1.88-9.25-4.1-10.87-11-9.18-20.49,3.07-17.28,5.94-34.57,10.73-51.47A360.25,360.25,0,0,1,144,215.85a366.17,366.17,0,0,1,47.17-68.79,369.88,369.88,0,0,1,77.81-67.71,19.54,19.54,0,0,0,3.37-2.11C280,69.64,287,72,295.17,77.16c28.07,17.65,50,40.77,64.67,70.52a163.52,163.52,0,0,1,15.82,54.1c4,35-1.93,68.28-18.78,99.06-20.6,37.65-51.19,64.28-92,78.69C246.77,385.94,228.18,389.43,210.51,388.72Zm78.84-85.86c7-.38,14-.48,21-1.21,7.73-.82,15.47-1.94,22.68-5.14,2.41-1.07,5.38-2.19,5.48-5.19.11-3.33-3-4.45-5.6-5.56-7.86-3.4-16.22-4.69-24.66-5.28-19.76-1.36-39.51-1.8-58.76,4-3.64,1.1-8.87,1.93-8.76,6.7.12,4.57,5.23,5.38,8.89,6.62C262.5,302.21,276,302,289.35,302.86Z"/><path class="cls-5" d="M257.42,60.28c-.34,1.8-1.78,2.65-3.14,3.56Q151.47,132.59,106.45,247.77A372.41,372.41,0,0,0,84.8,331.7c-4.19.45-5-3.52-6.82-5.71a163.23,163.23,0,0,1-33.54-71.88,166.75,166.75,0,0,1-.75-60.19,163.76,163.76,0,0,1,27-67.27C96.9,88.87,132.9,65.44,177.84,56.49a162.38,162.38,0,0,1,75.68,3C254.79,59.88,256.12,60,257.42,60.28Z"/><path class="cls-5" d="M847.89,326.77c-2.63-12.29-4.84-24.68-8-36.84A386.46,386.46,0,0,0,675.11,61.41a9.85,9.85,0,0,1-1.09-1c6.68-3.63,14.18-4,21.43-5.23,12.78-2.12,25.75-1.81,38.56-.91A151.86,151.86,0,0,1,782.55,66a168.56,168.56,0,0,1,41,24.14A173.25,173.25,0,0,1,863,135a161.13,161.13,0,0,1,22.75,65.74c4.45,38.94-3.23,75.46-24.06,109-3.07,5-6.59,9.53-9.87,14.31C850.85,325.48,849.84,326.81,847.89,326.77Z"/><path class="cls-1" d="M650.39,279.64c13,.08,25.89.52,38.44,4.2a35.37,35.37,0,0,1,7.34,2.93c4.88,2.74,4.89,6.05.05,8.75a44.71,44.71,0,0,1-15.08,4.7c-22.65,3.55-45.24,3.68-67.7-1.48a26.24,26.24,0,0,1-9.13-3.74c-3.77-2.57-3.84-5.15,0-7.69,5.07-3.38,11-4.37,16.85-5.49C630.8,280,640.59,279.75,650.39,279.64Z"/><path class="cls-1" d="M289.35,302.86c-13.32-.87-26.85-.65-39.77-5-3.66-1.24-8.77-2.05-8.89-6.62-.11-4.77,5.12-5.6,8.76-6.7,19.25-5.82,39-5.38,58.76-4,8.44.59,16.8,1.88,24.66,5.28,2.57,1.11,5.71,2.23,5.6,5.56-.1,3-3.07,4.12-5.48,5.19-7.21,3.2-14.95,4.32-22.68,5.14C303.39,302.38,296.39,302.48,289.35,302.86Z"/></g></g></svg>