<svg xmlns="http://www.w3.org/2000/svg" viewBox="0 0 696.95 150.84"><defs><style>.cls-1{fill:#043551;}.cls-2{fill:#c5e8fa;}</style></defs><g id="Layer_2" data-name="Layer 2"><g id="Layer_1-2" data-name="Layer 1"><path class="cls-1" d="M277.86,66.51C296.54,45,334.42,50.4,344.51,72.89c8.53-9.28,19.73-7.7,26.46,0,6.73-12.65,17.69-18.69,31.58-19.79,13.68-1.09,25.5,3,35,13.5a7.13,7.13,0,0,0-1.15-5.88Q421,37,405.6,13.35A7.43,7.43,0,0,0,397.75,10a7.35,7.35,0,0,0-6.09,6.88c-.2,2-.9,3.26-3.09,3.08-2.36-.18-2.49-1.86-2.4-3.69a13.29,13.29,0,0,1,8.92-11.33A12.91,12.91,0,0,1,410,10c4.22,6.21,8.21,12.56,12.3,18.85,6,9.28,12,18.59,18.15,27.83a16.6,16.6,0,0,1,2.9,9.82c-.13,6.35.12,12.71-.16,19-.75,17.22-14.34,32-31.38,34.3-19.85,2.72-37.36-9.27-41.91-28.71a63.17,63.17,0,0,1-1-8.23c-.64-6.49-5.1-10.86-11-10.88s-10.65,4.33-11.07,10.81c-.58,8.89-2.83,17.12-8.75,23.94-10.1,11.65-22.9,16.11-37.81,12.29S275.94,105.3,273,90.17c-1.78-9-.72-18.19-.54-27.3,0-2,1.1-3.74,2.19-5.41q15.33-23.58,30.69-47.15a12.42,12.42,0,0,1,13.16-5.83c5.62.93,9.19,4.47,10.6,10a11.92,11.92,0,0,1,.28,2.39c.09,1.77-.57,3-2.53,3s-2.67-.9-2.93-2.71c-.82-5.67-5.05-8.6-10-7a7.62,7.62,0,0,0-4.1,3.28q-15.35,23.58-30.67,47.16A7.63,7.63,0,0,0,277.86,66.51Zm128.41,48.58a31.76,31.76,0,0,0,29-18.6c5.63-12.18,3.17-23.71-6.66-31.22-12.69-9.69-32.41-9.67-45,.14-5,3.92-8.66,8.84-9.22,15.39A31.66,31.66,0,0,0,406.27,115.09Zm-96.87,0a32,32,0,0,0,29-18.6c5.73-12.46,2.91-24.44-7.51-31.89-12.68-9.08-31.81-8.76-44.14.78-6.15,4.76-9.73,10.94-9.46,18.86A32,32,0,0,0,309.4,115.12Z"/><path class="cls-1" d="M5.93,66.51C24.61,45,62.49,50.4,72.58,72.89c8.53-9.28,19.73-7.7,26.45,0,6.74-12.65,17.7-18.69,31.59-19.79,13.68-1.09,25.5,3,35,13.5a7.13,7.13,0,0,0-1.15-5.88Q149.1,37,133.67,13.35A7.43,7.43,0,0,0,125.82,10a7.35,7.35,0,0,0-6.09,6.88c-.2,2-.9,3.26-3.09,3.08-2.36-.18-2.49-1.86-2.4-3.69a13.3,13.3,0,0,1,8.91-11.33A12.92,12.92,0,0,1,138,10c4.22,6.21,8.21,12.56,12.3,18.85,6,9.28,12,18.59,18.15,27.83a16.6,16.6,0,0,1,2.9,9.82c-.13,6.35.12,12.71-.16,19-.75,17.22-14.34,32-31.38,34.3-19.85,2.72-37.36-9.27-41.91-28.71a63.17,63.17,0,0,1-1-8.23c-.64-6.49-5.1-10.86-11-10.88S75.21,76.37,74.79,82.85C74.21,91.74,72,100,66,106.79c-10.1,11.65-22.9,16.11-37.81,12.29S4,105.3,1,90.17C-.76,81.19.3,72,.48,62.87c0-2,1.1-3.74,2.19-5.41Q18,33.88,33.36,10.31A12.42,12.42,0,0,1,46.52,4.48c5.61.93,9.19,4.47,10.6,10a11.92,11.92,0,0,1,.28,2.39c.09,1.77-.57,3-2.53,3s-2.67-.9-2.93-2.71c-.82-5.67-5-8.6-10-7a7.62,7.62,0,0,0-4.1,3.28Q22.53,37.08,7.2,60.66A7.63,7.63,0,0,0,5.93,66.51Zm128.41,48.58a31.76,31.76,0,0,0,29-18.6c5.63-12.18,3.17-23.71-6.66-31.22-12.69-9.69-32.41-9.67-45,.14-5,3.92-8.66,8.84-9.22,15.39A31.66,31.66,0,0,0,134.34,115.09Zm-96.87,0a32,32,0,0,0,29-18.6C72.22,84.06,69.4,72.08,59,64.63c-12.68-9.08-31.81-8.76-44.14.78C8.69,70.17,5.11,76.35,5.38,84.27A32,32,0,0,0,37.47,115.12Z"/><path class="cls-2" d="M154.83,9.27c-.31,1.9-.6,3.81-.93,5.71s-1.43,2.72-3,2.49-2.33-1.58-2-3.38q1-5.84,2-11.65c.35-2,1.4-2.69,3.37-2.36q5.84,1,11.65,2c1.75.3,2.69,1.46,2.46,3s-1.53,2.32-3.28,2c-1.91-.33-3.81-.71-5.69-1.07-.22.62.18.82.36,1.09q6.9,9.78,13.8,19.53c1,1.36.93,2.63,0,3.55a2.46,2.46,0,0,1-3.94-.51c-3.13-4.4-6.23-8.8-9.34-13.21q-2.55-3.59-5.09-7.19Z"/><path class="cls-2" d="M183.73,40.46c.31-1.9.61-3.81.94-5.71s1.43-2.72,2.94-2.49,2.34,1.58,2,3.38q-1,5.84-2,11.65c-.34,2-1.4,2.69-3.37,2.36q-5.82-1-11.65-2c-1.75-.3-2.69-1.46-2.45-3s1.52-2.32,3.27-2c1.91.33,3.81.72,5.7,1.07.21-.62-.18-.82-.37-1.09q-6.89-9.76-13.8-19.53c-1-1.36-.92-2.63,0-3.55a2.47,2.47,0,0,1,4,.52c3.12,4.39,6.22,8.8,9.34,13.2l5.08,7.19Z"/><path class="cls-2" d="M404.15,68.13c-1.2,1.18-2.4,2.37-3.61,3.54s-2.41,1.17-3.36.23-.82-2.32.32-3.43q3.71-3.6,7.43-7.16c1.25-1.2,2.38-1.17,3.59.08q3.6,3.69,7.16,7.43c1.08,1.12,1.14,2.42.2,3.35a2.24,2.24,0,0,1-3.35-.27c-1.17-1.22-2.31-2.47-3.45-3.7-.48.33-.3.67-.31,1q-.21,10.43-.39,20.87c0,1.45-.71,2.33-1.86,2.48a2.15,2.15,0,0,1-2.51-2.4q.12-7.06.26-14.12c0-2.56.09-5.12.13-7.69Z"/><path class="cls-2" d="M408.36,105c1.2-1.18,2.39-2.37,3.61-3.54s2.41-1.17,3.36-.23.82,2.32-.32,3.43l-7.43,7.16c-1.25,1.2-2.38,1.17-3.59-.08q-3.6-3.69-7.17-7.43a2.23,2.23,0,1,1,3.16-3.08c1.17,1.22,2.31,2.47,3.45,3.7.48-.33.3-.68.31-1q.19-10.44.39-20.87c0-1.46.7-2.33,1.86-2.48a2.15,2.15,0,0,1,2.5,2.4q-.11,7.06-.25,14.12-.06,3.84-.14,7.68Z"/><path class="cls-1" d="M531.48,66.51C550.16,45,588.05,50.4,598.13,72.89c8.53-9.28,19.73-7.7,26.46,0,6.74-12.65,17.69-18.69,31.58-19.79,13.68-1.09,25.5,3,35,13.5A7.13,7.13,0,0,0,690,60.75Q674.66,37,659.23,13.35A7.44,7.44,0,0,0,651.37,10a7.35,7.35,0,0,0-6.09,6.88c-.2,2-.89,3.26-3.09,3.08-2.36-.18-2.49-1.86-2.4-3.69a13.31,13.31,0,0,1,8.92-11.33A12.91,12.91,0,0,1,663.59,10c4.22,6.21,8.21,12.56,12.3,18.85,6,9.28,12.05,18.59,18.15,27.83A16.61,16.61,0,0,1,697,66.51c-.14,6.35.11,12.71-.17,19-.75,17.22-14.34,32-31.38,34.3-19.84,2.72-37.35-9.27-41.91-28.71a63.17,63.17,0,0,1-1-8.23c-.63-6.49-5.1-10.86-11.05-10.88s-10.65,4.33-11.07,10.81c-.58,8.89-2.83,17.12-8.75,23.94-10.09,11.65-22.9,16.11-37.81,12.29s-24.22-13.78-27.21-28.91c-1.78-9-.72-18.19-.54-27.3,0-2,1.11-3.74,2.19-5.41q15.33-23.58,30.69-47.15a12.42,12.42,0,0,1,13.16-5.83c5.62.93,9.19,4.47,10.61,10a12.68,12.68,0,0,1,.27,2.39c.09,1.77-.57,3-2.53,3s-2.67-.9-2.93-2.71c-.82-5.67-5-8.6-10-7a7.62,7.62,0,0,0-4.1,3.28q-15.33,23.58-30.67,47.16A7.63,7.63,0,0,0,531.48,66.51Zm128.41,48.58a31.76,31.76,0,0,0,29-18.6c5.63-12.18,3.17-23.71-6.66-31.22-12.68-9.69-32.41-9.67-45,.14-5,3.92-8.66,8.84-9.22,15.39A31.66,31.66,0,0,0,659.89,115.09Zm-96.87,0a32,32,0,0,0,29-18.6c5.73-12.46,2.91-24.44-7.5-31.89-12.69-9.08-31.82-8.76-44.15.78-6.14,4.76-9.73,10.94-9.45,18.86A32,32,0,0,0,563,115.12Z"/><path class="cls-2" d="M545.86,143.26c1.19,1.2,2.4,2.38,3.57,3.59s1.2,2.39.26,3.35-2.31.84-3.43-.29q-3.63-3.67-7.23-7.36c-1.21-1.24-1.19-2.37.05-3.59,2.44-2.43,4.9-4.83,7.36-7.24a2.25,2.25,0,0,1,3.35-.22,2.22,2.22,0,0,1-.24,3.35c-1.21,1.18-2.45,2.33-3.66,3.49.33.47.67.29,1,.29,6.95.08,100-.65,107-.58,1.46,0,2.34.68,2.49,1.83a2.14,2.14,0,0,1-2.37,2.53c-4.71,0-95.51.71-100.22.67L546,143Z"/><path class="cls-2" d="M676.64,137.86c-1.19-1.19-2.39-2.37-3.57-3.58s-1.19-2.4-.26-3.35,2.31-.85,3.43.29q3.63,3.66,7.23,7.36c1.21,1.24,1.19,2.36-.05,3.59q-3.66,3.63-7.36,7.23c-1.11,1.08-2.41,1.16-3.35.22a2.22,2.22,0,0,1,.24-3.34c1.21-1.19,2.45-2.34,3.67-3.49-.34-.47-.68-.29-1-.3l-20.88-.2c-1.45,0-2.33-.68-2.49-1.84a2.15,2.15,0,0,1,2.38-2.52c4.7,0,9.41.07,14.11.12l7.69.07Z"/></g></g></svg>