<svg xmlns="http://www.w3.org/2000/svg" viewBox="0 0 465.94 522.02"><defs><style>.cls-1{fill:#043551;}</style></defs><g id="Layer_2" data-name="Layer 2"><g id="Layer_1-2" data-name="Layer 1"><path class="cls-1" d="M119.35,521.93c-21.31,0-42.62-.11-63.92.09-3.91,0-5-.93-5-4.9.5-32.8-.34-65.59-2.17-98.32-2.05-36.68-5.13-73.3-10.07-109.73-.11-.82-.28-1.64-.44-2.45-2.07-10.42-2.07-10.3,8.81-10.83,41.9-2,83.8-4,125.64-6.94,6.41-.45,6.44-.51,6.84,5.92,4.11,65.25,8.73,130.48,8.75,195.91,0,8.16.14,16.32.56,24.47.18,3.64-.75,4.79-4.58,4.75-21.48-.19-43-.09-64.43-.09Z"/><path class="cls-1" d="M348.56,382c-.41,50.36-.67,90.67,2.33,130.92.34,4.56-2.47,3.76-5,3.87-31.29,1.39-62.6,1.83-93.91,2.33-8.67.14-17.34,0-26,.51-4.28.22-5.29-1.37-5.42-5.31-.61-18.31-1.45-36.62-2.29-54.92C215.75,404,213.68,348.59,213,293.11c-.06-4.59.83-6.21,5.75-6.57,31.61-2.31,63.27-1.74,94.91-2,11.16-.1,22.32.31,33.47.33,3.5,0,4.85.89,4.69,4.84C350.49,323.8,349.39,357.93,348.56,382Z"/><path class="cls-1" d="M176.41,129.08c-7.1-26.37-7.55-52.64,2-78.52C184.91,33,195,18,211.34,7.92c22.45-13.87,48.76-9.2,65.17,11.51,16.14,20.37,19.37,43.56,13.42,68-8.78,36.05-29.76,63.39-61.78,82.21-3.1,1.83-6.18,3.69-10.19,6.09,7.42-.24,13.15-3,18.74-5.31C245,167,253.51,164,261.47,159.62c29.41-16.06,53.07-37.7,67.16-68.67,6-13.14,9.78-26.89,9.74-41.47,0-3.44,1-4.73,4.66-4.23,5.76.8,11.59,1.3,17.4,1.56,3.83.16,5.05,1.19,4.41,5.38C361.22,76,351.53,97,336.8,115.82c-18.74,23.93-42.9,40.52-71,51.56-6.45,2.53-13.11,4.53-19.67,6.78l-16.46,4.28c5.7-1.25,11.63-1.45,17.16-3.6,14.65-2.28,28.8-6.56,42.77-11.3,46.36-15.7,89.59-37.38,127.77-68.4,9.58-7.79,18.69-16.13,26.22-25.94,2.85-3.71,4.86-2.83,7.53-.42,3.95,3.56,7.72,7.38,12,10.54,3.72,2.76,3.74,4.5.42,7.8-18.36,18.29-39.71,32.32-62.32,44.59-38,20.59-78.33,34.82-120.54,43.6a373.12,373.12,0,0,1-78.31,8.3c-1,0-2.37.82-3-.72-.21-1.55,1.3-1.28,2-1.86,2-1.77,4.54-3.4,4-6.45-.62-3.28-3.66-4.26-6.45-4.68a20.87,20.87,0,0,0-18.68,6.18c-1.93,1.95-3,4.46-.9,7.14.64.82,1.24.91,2-.49-21.09,4.6-42.16,5-63.25,3.83-26.11-1.47-51.56-6.32-75.23-17.95C1.18,148.18-11.44,107.38,10.94,66.7,24.47,42.12,45.17,31.51,72.25,35.88c16.65,2.68,31.08,10.65,44.34,20.73,23.16,17.59,40.72,39.91,54.12,65.56,1.66,3.17,3.25,6.44,4.78,9.71L182,149.61c.51,2.42.92,4.87,1.54,7.27,1.12,4.35,1.17,4.34,5.82,1.89l-6.21-11.21Q179.78,138.32,176.41,129.08Zm-.78,54.16c-3-8.32-2-14.47,3.78-18.69,3.76-2.77,3-4.79,1.13-8.11a224.58,224.58,0,0,0-48.3-59.33c-16.39-14.33-33.95-26.86-55.4-32.65-17.92-4.84-30.2.07-38.32,15.31a65.35,65.35,0,0,0-3.3,7.8c-9.78,25.56-4.45,45.91,16.63,63.28,12.5,10.31,26.9,17,42.32,21.52,14.84,4.33,29.82,7.86,45.3,9.45C151.38,183.05,163.23,182.63,175.63,183.24Zm10.17-68.69a189,189,0,0,0,4.3,39.71c.8,3.72,1.89,5.53,6.28,5.52,7.26,0,14,5,14.75,11.14.73,5.78,2.76,3.11,5,1.4a137.54,137.54,0,0,0,28.18-28.78C259,123,268.44,100.68,266.2,74.74a65.07,65.07,0,0,0-14.35-36c-8.24-10.2-17.76-11.88-29.11-5.26-7.63,4.45-13.51,10.73-18.43,18C190.82,71.24,186.08,93.57,185.8,114.55Z"/><path class="cls-1" d="M211.71,235.05c0-8.83.13-17.65-.07-26.48-.07-3.28.66-4.67,4.28-4.85,27.26-1.36,54.48-3.45,81.73-5,24.24-1.38,48.45-3.29,72.73-3.87,1.83,0,3.67.08,5.5,0,2.33-.09,2.9,1,2.32,3.08-5.31,19.16-5.91,38.77-5.26,58.46.14,4.27-2.64,3.9-5.26,4-20.8.59-41.62.88-62.41,1.76-29.44,1.24-58.86,2.85-88.27,4.5-3.55.2-4.32-1-4.29-4.1.08-9.16,0-18.32,0-27.48Z"/><path class="cls-1" d="M83.51,211.1c20.47-.13,40.86-2,61.32-2.56,8.21-.22,16.51-1,24.75-1.81,3-.3,4.49.43,4.68,3.91q1.35,25.92,3.2,51.83c.28,3.93-.94,5.09-4.82,5.24-40.41,1.66-80.75,4.54-121.09,7.27-9.46.64-18.91,1.5-28.35,2.43-2.87.29-4.25-.09-4.1-3.49a536,536,0,0,0-1-56.4c-.25-4.08,1.19-4.93,5-4.9,20.14.15,40.28.07,60.41.07C83.52,212.16,83.52,211.63,83.51,211.1Z"/></g></g></svg>